<svg xmlns="http://www.w3.org/2000/svg" viewBox="0 0 1024 1024" role="img" aria-label="ZWMP icon">
  <defs>
    <linearGradient id="bg" x1="112" y1="96" x2="912" y2="928" gradientUnits="userSpaceOnUse">
      <stop offset="0" stop-color="#f07b38"/>
      <stop offset="0.48" stop-color="#9a4dff"/>
      <stop offset="1" stop-color="#21132f"/>
    </linearGradient>
    <linearGradient id="beam" x1="242" y1="226" x2="784" y2="813" gradientUnits="userSpaceOnUse">
      <stop offset="0" stop-color="#fff2c8"/>
      <stop offset="1" stop-color="#8ff3ff"/>
    </linearGradient>
    <filter id="soft" x="-20%" y="-20%" width="140%" height="140%" color-interpolation-filters="sRGB">
      <feDropShadow dx="0" dy="24" stdDeviation="36" flood-color="#0b0715" flood-opacity="0.28"/>
    </filter>
  </defs>
  <rect width="1024" height="1024" rx="230" fill="url(#bg)"/>
  <path d="M214 248h596" stroke="#fff" stroke-opacity=".26" stroke-width="28" stroke-linecap="round"/>
  <path d="M214 776h596" stroke="#fff" stroke-opacity=".18" stroke-width="28" stroke-linecap="round"/>
  <g filter="url(#soft)">
    <path d="M288 310h206l-138 170 138 170H278l126-170-116-170Z" fill="#16121e" fill-opacity=".82"/>
    <path d="M529 310l54 242 72-242h87l-119 400h-77l-57-248-58 248h-75l36-61 58-89 35-250h44Z" fill="#16121e" fill-opacity=".82"/>
    <path d="M266 286h206l-138 170 138 170H256l126-170-116-170Z" fill="url(#beam)"/>
    <path d="M507 286l54 242 72-242h87L601 686h-77l-57-248-58 248h-75l36-61 58-89 35-250h44Z" fill="url(#beam)"/>
  </g>
  <circle cx="752" cy="674" r="46" fill="#fff2c8"/>
  <path d="M714 675c38-74 87-111 148-111" fill="none" stroke="#fff2c8" stroke-width="28" stroke-linecap="round"/>
</svg>
